# xmcd CD database file
#
# Track frame offsets:
#	150
#	21180
#	35405
#	57161
#	69928
#	86933
#	102562
#	119324
#	133765
#	156007
#	172580
#	187372
#	206051
#	218629
#	238064
#	251101
#	268943
#	282898
#	299606
#	316800
#	333292
#
# Disc length: 4602 seconds
#
# Revision: 2
# Processed by: cddbd v1.5.1PL0 Copyright (c) Steve Scherf et al.
# Submitted via: CDex 1.51
#
DISCID=4411f815
DTITLE=Caetano Veloso - O Melhor de Caetano Veloso-2003
DYEAR=2003
DGENRE=Pop Brasil
TTITLE0=Voce nao me ensinou a te esquecer-Caetano Veloso
TTITLE1=Sozinho-Caetano Veloso
TTITLE2=Debaixo dos caracois dos seus cabelos-Caetano Veloso
TTITLE3=Alegria Alegria-Caetano Veloso
TTITLE4=Irene-Caetano Veloso
TTITLE5=Marinheiro 36-Caetano Veloso
TTITLE6=Soy loco por ti America-Caetano Veloso
TTITLE7=Qualquer coisa-Caetano Veloso
TTITLE8=Voce eh linda-Caetano Veloso
TTITLE9=Felicidade-Caetano Veloso
TTITLE10=Sampa-Caetano Veloso
TTITLE11=London London-Caetano Veloso
TTITLE12=Trilhos urbanos-Caetano Veloso
TTITLE13=Queixa-Caetano Veloso
TTITLE14=Luz do Sol-Caetano Veloso
TTITLE15=Lua de Sao Jorge-Caetano Veloso
TTITLE16=Leaozinho-Caetano Veloso
TTITLE17=Eclipse oculto-Caetano Veloso
TTITLE18=Outras palavras-Caetano Veloso
TTITLE19=Beleza pura-Caetano Veloso
TTITLE20=Meia lua inteira-Caetano Veloso
EXTD=YEAR: 2003
EXTT0=
EXTT1=
EXTT2=
EXTT3=
EXTT4=
EXTT5=
EXTT6=
EXTT7=
EXTT8=
EXTT9=
EXTT10=
EXTT11=
EXTT12=
EXTT13=
EXTT14=
EXTT15=
EXTT16=
EXTT17=
EXTT18=
EXTT19=
EXTT20=
PLAYORDER=
